<mxfile host="app.diagrams.net" modified="2020-08-10T03:33:29.295Z" agent="5.0 (Windows NT 10.0; Win64; x64) AppleWebKit/537.36 (KHTML, like Gecko) Chrome/84.0.4147.105 Safari/537.36 Edg/84.0.522.52" etag="wV8K7yJHNsWKtlUJQAH-" version="13.6.2" type="github">
  <diagram id="61zhGNAl97HsHrmISpHA" name="Page-1">
    <mxGraphModel dx="1422" dy="762" grid="1" gridSize="10" guides="1" tooltips="1" connect="1" arrows="1" fold="1" page="1" pageScale="1" pageWidth="827" pageHeight="1169" math="0" shadow="0">
      <root>
        <mxCell id="0" />
        <mxCell id="1" parent="0" />
        <mxCell id="rOAjGQeetKVFGDO_eGMv-1" value="" style="whiteSpace=wrap;html=1;rounded=0;shadow=0;labelBackgroundColor=none;strokeColor=#000000;strokeWidth=1;fillColor=none;fontFamily=Verdana;fontSize=12;fontColor=#000000;align=center;comic=1;" vertex="1" parent="1">
          <mxGeometry x="20" y="20" width="1060" height="810" as="geometry" />
        </mxCell>
        <mxCell id="rOAjGQeetKVFGDO_eGMv-2" value="LOGO" style="whiteSpace=wrap;html=1;rounded=0;shadow=0;labelBackgroundColor=none;strokeWidth=1;fontFamily=Verdana;fontSize=28;align=center;comic=1;" vertex="1" parent="1">
          <mxGeometry x="280" y="60" width="440" height="50" as="geometry" />
        </mxCell>
        <mxCell id="rOAjGQeetKVFGDO_eGMv-3" value="로그인" style="text;html=1;points=[];align=left;verticalAlign=top;spacingTop=-4;fontSize=14;fontFamily=Verdana" vertex="1" parent="1">
          <mxGeometry x="840" y="110" width="60" height="20" as="geometry" />
        </mxCell>
        <mxCell id="rOAjGQeetKVFGDO_eGMv-4" value="공지" style="text;html=1;points=[];align=left;verticalAlign=top;spacingTop=-4;fontSize=14;fontFamily=Verdana" vertex="1" parent="1">
          <mxGeometry x="925" y="110" width="60" height="20" as="geometry" />
        </mxCell>
        <mxCell id="rOAjGQeetKVFGDO_eGMv-5" value="" style="line;strokeWidth=1;html=1;rounded=0;shadow=0;labelBackgroundColor=none;fillColor=none;fontFamily=Verdana;fontSize=14;fontColor=#000000;align=center;comic=1;" vertex="1" parent="1">
          <mxGeometry x="20" y="130" width="1060" height="10" as="geometry" />
        </mxCell>
        <mxCell id="rOAjGQeetKVFGDO_eGMv-6" value="" style="whiteSpace=wrap;html=1;rounded=0;shadow=0;labelBackgroundColor=none;strokeWidth=1;fillColor=none;fontFamily=Verdana;fontSize=12;align=center;comic=1;" vertex="1" parent="1">
          <mxGeometry x="30" y="150" width="1040" height="50" as="geometry" />
        </mxCell>
        <mxCell id="rOAjGQeetKVFGDO_eGMv-7" value="전시관" style="text;html=1;points=[];align=left;verticalAlign=top;spacingTop=-4;fontSize=14;fontFamily=Verdana" vertex="1" parent="1">
          <mxGeometry x="330" y="165" width="60" height="20" as="geometry" />
        </mxCell>
        <mxCell id="rOAjGQeetKVFGDO_eGMv-8" value="행사" style="text;html=1;points=[];align=left;verticalAlign=top;spacingTop=-4;fontSize=14;fontFamily=Verdana" vertex="1" parent="1">
          <mxGeometry x="477" y="165" width="60" height="20" as="geometry" />
        </mxCell>
        <mxCell id="rOAjGQeetKVFGDO_eGMv-9" value="기념품 샵" style="text;html=1;points=[];align=left;verticalAlign=top;spacingTop=-4;fontSize=14;fontFamily=Verdana" vertex="1" parent="1">
          <mxGeometry x="623" y="165" width="60" height="20" as="geometry" />
        </mxCell>
        <mxCell id="rOAjGQeetKVFGDO_eGMv-10" value="&lt;div style=&quot;text-align: justify&quot;&gt;주소, 소개, 연락처&lt;/div&gt;" style="whiteSpace=wrap;html=1;rounded=0;shadow=0;labelBackgroundColor=none;strokeWidth=1;fillColor=none;fontFamily=Verdana;fontSize=12;align=center;verticalAlign=top;spacing=10;comic=1;" vertex="1" parent="1">
          <mxGeometry x="40" y="710" width="1020" height="110" as="geometry" />
        </mxCell>
        <mxCell id="rOAjGQeetKVFGDO_eGMv-11" value="" style="verticalLabelPosition=bottom;shadow=0;dashed=0;align=center;html=1;verticalAlign=top;strokeWidth=1;shape=mxgraph.mockup.graphics.simpleIcon;strokeColor=#999999;rounded=0;labelBackgroundColor=none;fontFamily=Verdana;fontSize=14;fontColor=#000000;comic=1;" vertex="1" parent="1">
          <mxGeometry x="100" y="310" width="220" height="310" as="geometry" />
        </mxCell>
        <mxCell id="rOAjGQeetKVFGDO_eGMv-12" value="Search" style="strokeWidth=1;shadow=0;dashed=0;align=center;html=1;shape=mxgraph.mockup.forms.searchBox;strokeColor=#999999;mainText=;strokeColor2=#008cff;fontColor=#666666;fontSize=17;align=left;spacingLeft=3;rounded=0;labelBackgroundColor=none;comic=1;" vertex="1" parent="1">
          <mxGeometry x="403" y="260" width="220" height="30" as="geometry" />
        </mxCell>
        <mxCell id="rOAjGQeetKVFGDO_eGMv-13" value="&lt;b&gt;&lt;font style=&quot;font-size: 25px&quot;&gt;미술관 행사&lt;/font&gt;&lt;/b&gt;" style="text;html=1;points=[];align=center;verticalAlign=top;spacingTop=-4;fontSize=14;fontFamily=Verdana" vertex="1" parent="1">
          <mxGeometry x="440" y="220" width="140" height="20" as="geometry" />
        </mxCell>
        <mxCell id="rOAjGQeetKVFGDO_eGMv-16" value="" style="verticalLabelPosition=bottom;shadow=0;dashed=0;align=center;html=1;verticalAlign=top;strokeWidth=1;shape=mxgraph.mockup.graphics.simpleIcon;strokeColor=#999999;rounded=0;labelBackgroundColor=none;fontFamily=Verdana;fontSize=14;fontColor=#000000;comic=1;" vertex="1" parent="1">
          <mxGeometry x="450" y="310" width="220" height="310" as="geometry" />
        </mxCell>
        <mxCell id="rOAjGQeetKVFGDO_eGMv-17" value="" style="verticalLabelPosition=bottom;shadow=0;dashed=0;align=center;html=1;verticalAlign=top;strokeWidth=1;shape=mxgraph.mockup.graphics.simpleIcon;strokeColor=#999999;rounded=0;labelBackgroundColor=none;fontFamily=Verdana;fontSize=14;fontColor=#000000;comic=1;" vertex="1" parent="1">
          <mxGeometry x="790" y="310" width="220" height="310" as="geometry" />
        </mxCell>
        <mxCell id="rOAjGQeetKVFGDO_eGMv-18" value="행사제목" style="text;html=1;points=[];align=left;verticalAlign=top;spacingTop=-4;fontSize=14;fontFamily=Verdana" vertex="1" parent="1">
          <mxGeometry x="100" y="640" width="100" height="20" as="geometry" />
        </mxCell>
        <mxCell id="rOAjGQeetKVFGDO_eGMv-19" value="행사제목" style="text;html=1;points=[];align=left;verticalAlign=top;spacingTop=-4;fontSize=14;fontFamily=Verdana" vertex="1" parent="1">
          <mxGeometry x="450" y="640" width="60" height="20" as="geometry" />
        </mxCell>
        <mxCell id="rOAjGQeetKVFGDO_eGMv-20" value="행사제목" style="text;html=1;points=[];align=left;verticalAlign=top;spacingTop=-4;fontSize=14;fontFamily=Verdana" vertex="1" parent="1">
          <mxGeometry x="790" y="640" width="60" height="20" as="geometry" />
        </mxCell>
        <mxCell id="rOAjGQeetKVFGDO_eGMv-22" value="행사일정" style="text;html=1;points=[];align=left;verticalAlign=top;spacingTop=-4;fontSize=14;fontFamily=Verdana" vertex="1" parent="1">
          <mxGeometry x="100" y="670" width="100" height="20" as="geometry" />
        </mxCell>
        <mxCell id="rOAjGQeetKVFGDO_eGMv-23" value="행사일정" style="text;html=1;points=[];align=left;verticalAlign=top;spacingTop=-4;fontSize=14;fontFamily=Verdana" vertex="1" parent="1">
          <mxGeometry x="450" y="670" width="100" height="20" as="geometry" />
        </mxCell>
        <mxCell id="rOAjGQeetKVFGDO_eGMv-24" value="행사일정" style="text;html=1;points=[];align=left;verticalAlign=top;spacingTop=-4;fontSize=14;fontFamily=Verdana" vertex="1" parent="1">
          <mxGeometry x="790" y="670" width="100" height="20" as="geometry" />
        </mxCell>
      </root>
    </mxGraphModel>
  </diagram>
</mxfile>
